# Blender v3.5.1 OBJ File: 'skybox.blend'
# www.blender.org
mtllib model.mtl
o export_mesh_Cube.002
v -0.500000 0.500000 0.500000
v -0.500000 0.500000 -0.500000
v 0.500000 0.500000 0.500000
v 0.500000 0.500000 -0.500000
v -0.500000 -0.500000 0.500000
v -0.500000 -0.500000 -0.500000
v 0.500000 -0.500000 0.500000
v 0.500000 -0.500000 -0.500000
vt 0.250000 0.750977
vt 0.500000 0.999023
vt 0.500000 0.750977
vt 0.000000 0.500000
vt 0.250000 0.500000
vt 0.750000 0.500000
vt 1.000000 0.750977
vt 1.000000 0.500000
vt 0.250000 0.252441
vt 0.500000 0.500000
vt 0.500000 0.252441
vt 0.750000 0.750977
vt 0.250000 0.999023
vt 0.000000 0.750977
vn 0.0000 0.0000 -1.0000
vn -1.0000 0.0000 0.0000
vn 0.0000 1.0000 0.0000
vn 0.0000 0.0000 1.0000
vn 0.0000 -1.0000 0.0000
vn 1.0000 0.0000 0.0000
usemtl Material
s off
f 3/1/1 5/2/1 1/3/1
f 8/4/2 3/1/2 4/5/2
f 6/6/3 7/7/3 8/8/3
f 8/9/4 2/10/4 6/11/4
f 4/5/5 1/3/5 2/10/5
f 2/10/6 5/12/6 6/6/6
f 3/1/1 7/13/1 5/2/1
f 8/4/2 7/14/2 3/1/2
f 6/6/3 5/12/3 7/7/3
f 8/9/4 4/5/4 2/10/4
f 4/5/5 3/1/5 1/3/5
f 2/10/6 1/3/6 5/12/6
